<?xml version="1.0" encoding="UTF-8"?>
<svg version="1.1" xmlns="http://www.w3.org/2000/svg" width="392" height="264">
<path d="M0 0 C1.12341797 0.68255859 1.12341797 0.68255859 2.26953125 1.37890625 C3.19378906 1.92675781 4.11804688 2.47460938 5.0703125 3.0390625 C17.99172493 11.20083663 28.71051439 21.56156684 39.29516602 32.4777832 C44.62761018 37.9302994 50.24677194 42.70894558 56.26953125 47.37890625 C68.96796693 57.55821285 75.91284903 64.6089226 78.26953125 81.37890625 C78.65723799 86.93884912 78.6701624 92.46821492 78.6328125 98.0390625 C78.63229182 99.60216776 78.63281751 101.16527367 78.63432312 102.7283783 C78.63423419 105.97990901 78.62396766 109.23118771 78.60571289 112.48266602 C78.58300977 116.61310621 78.58249387 120.74318032 78.58923054 124.87366581 C78.59259998 128.09365491 78.58588529 131.31356324 78.5761013 134.53353691 C78.57230152 136.05509453 78.57107891 137.57666122 78.57268715 139.09822273 C78.57829679 170.81814866 78.57829679 170.81814866 68.26953125 181.37890625 C57.00150632 190.78034347 45.71916252 191.60725478 31.484375 191.9921875 C30.28078842 192.02951492 29.07720184 192.06684235 27.83714294 192.1053009 C13.50437937 192.51352073 -0.83033787 192.57746367 -15.16796875 192.56640625 C-15.85914669 192.56628666 -16.55032463 192.56616707 -17.26244736 192.56604385 C-34.69948888 192.56223986 -52.1253406 192.47862207 -69.54296875 191.56640625 C-70.2700705 191.53147064 -70.99717224 191.49653503 -71.74630737 191.46054077 C-86.11373465 190.7377388 -97.0160991 188.76804573 -107.04296875 178.00390625 C-112.23362811 172.20345596 -113.18084039 164.99781613 -113.2421875 157.5546875 C-113.2603653 156.71101624 -113.27854309 155.86734497 -113.29727173 154.99810791 C-113.35249553 152.2292398 -113.3863009 149.46063698 -113.41796875 146.69140625 C-113.44824247 144.74795654 -113.47909545 142.80451578 -113.51049805 140.86108398 C-113.58789672 135.74580642 -113.64299118 130.6304845 -113.69470215 125.51489258 C-113.73040982 122.38407348 -113.77784241 119.25364735 -113.82910156 116.12304688 C-113.91173851 111.03706827 -113.97175827 105.95130414 -114.01455688 100.86483765 C-114.03329084 98.93721259 -114.05835386 97.0096372 -114.09017944 95.08218384 C-114.48417445 69.7342474 -114.48417445 69.7342474 -106.29296875 59.81640625 C-103.12032018 56.59670568 -99.74925261 53.81480181 -96.06640625 51.1953125 C-88.0937871 45.40450065 -81.04367074 38.54721384 -73.9296875 31.75390625 C-26.56918065 -13.35438677 -26.56918065 -13.35438677 0 0 Z M1.76953125 127.69140625 C-9.89772479 133.56688239 -18.70048447 134.45703977 -31.23046875 130.44140625 C-34.47710384 129.31789963 -36.85496873 128.29590627 -39.73046875 126.37890625 C-43.15365792 126.52153913 -45.05926096 126.79430592 -47.66796875 129.06640625 C-49.19916008 132.39899915 -48.99500398 133.93656036 -47.73046875 137.37890625 C-38.83187537 145.68426007 -28.25951144 146.74085186 -16.60546875 146.81640625 C-15.59234619 146.82647705 -14.57922363 146.83654785 -13.53540039 146.84692383 C-4.93955191 146.74829785 3.14840291 145.43471724 10.26953125 140.31640625 C10.99140625 139.80980469 11.71328125 139.30320313 12.45703125 138.78125 C14.37229459 137.3605137 14.37229459 137.3605137 16.26953125 135.37890625 C16.05289199 132.77923511 15.47655894 131.605132 13.7109375 129.67578125 C13.09089844 129.1653125 12.47085938 128.65484375 11.83203125 128.12890625 C10.90583984 127.34773437 10.90583984 127.34773437 9.9609375 126.55078125 C6.76479991 124.33636722 4.90329551 126.0104789 1.76953125 127.69140625 Z " fill="#FEFEFD" transform="translate(204.73046875,27.62109375)"/>
<path d="M0 0 C13.85098538 8.13294332 24.91214431 18.63722715 36.02539062 30.09863281 C41.35792444 35.55122793 46.97714578 40.32996575 53 45 C65.69843568 55.1793066 72.64331778 62.23001635 75 79 C75.38770674 84.55994287 75.40063115 90.08930867 75.36328125 95.66015625 C75.36276057 97.22326151 75.36328626 98.78636742 75.36479187 100.34947205 C75.36470294 103.60100276 75.35443641 106.85228146 75.33618164 110.10375977 C75.31347852 114.23419996 75.31296262 118.36427407 75.31969929 122.49475956 C75.32306873 125.71474866 75.31635404 128.93465699 75.30657005 132.15463066 C75.30277027 133.67618828 75.30154766 135.19775497 75.3031559 136.71931648 C75.30876554 168.43924241 75.30876554 168.43924241 65 179 C53.73197507 188.40143722 42.44963127 189.22834853 28.21484375 189.61328125 C27.01125717 189.65060867 25.80767059 189.6879361 24.56761169 189.72639465 C10.23484812 190.13461448 -4.09986912 190.19855742 -18.4375 190.1875 C-19.12867794 190.18738041 -19.81985588 190.18726082 -20.53197861 190.1871376 C-37.96902013 190.18333361 -55.39487185 190.09971582 -72.8125 189.1875 C-73.53960175 189.15256439 -74.26670349 189.11762878 -75.01583862 189.08163452 C-89.3832659 188.35883255 -100.28563035 186.38913948 -110.3125 175.625 C-115.50315936 169.82454971 -116.45037164 162.61890988 -116.51171875 155.17578125 C-116.52989655 154.33210999 -116.54807434 153.48843872 -116.56680298 152.61920166 C-116.62202678 149.85033355 -116.65583215 147.08173073 -116.6875 144.3125 C-116.71777372 142.36905029 -116.7486267 140.42560953 -116.7800293 138.48217773 C-116.85742797 133.36690017 -116.91252243 128.25157825 -116.9642334 123.13598633 C-116.99994107 120.00516723 -117.04737366 116.8747411 -117.09863281 113.74414062 C-117.18126976 108.65816202 -117.24128952 103.57239789 -117.28408813 98.4859314 C-117.30282209 96.55830634 -117.32788511 94.63073095 -117.35971069 92.70327759 C-117.7537057 67.35534115 -117.7537057 67.35534115 -109.5625 57.4375 C-106.38985143 54.21779943 -103.01878386 51.43589556 -99.3359375 48.81640625 C-91.36331835 43.0255944 -84.31320199 36.16830759 -77.19921875 29.375 C-68.48591695 21.08068916 -59.52515113 13.34914678 -50 6 C-49.01 6.495 -49.01 6.495 -48 7 C-56.66659163 20.90204119 -69.52522041 30.22141634 -82.89331055 39.28344727 C-86.34741515 41.65339359 -88.95131677 43.78070198 -91.3125 47.3125 C-92.73828125 49.42578125 -92.73828125 49.42578125 -94 51 C-94.66 51 -95.32 51 -96 51 C-96.24878906 51.57878906 -96.49757813 52.15757813 -96.75390625 52.75390625 C-98.17449186 55.31452295 -99.80787986 56.9347846 -101.9375 58.9375 C-108.54127404 65.40991507 -111.17939242 71.71072584 -111.29327393 81.10171509 C-111.29236755 81.84787079 -111.29146118 82.59402649 -111.29052734 83.36279297 C-111.29724457 84.16865845 -111.30396179 84.97452393 -111.31088257 85.80480957 C-111.32977367 88.45066611 -111.33378208 91.09626785 -111.3359375 93.7421875 C-111.34237105 95.59392396 -111.34909982 97.44565943 -111.35610962 99.2973938 C-111.36805976 103.17240759 -111.37179272 107.04733237 -111.37060547 110.92236328 C-111.37040228 115.87073989 -111.39771421 120.81854218 -111.43214989 125.76678276 C-111.45446129 129.58967679 -111.45844173 133.41243344 -111.45738602 137.23538589 C-111.45973521 139.05892035 -111.46852005 140.88245898 -111.48405075 142.7059288 C-111.78834585 155.91599042 -111.78834585 155.91599042 -107 168 C-106.5875 168.86625 -106.175 169.7325 -105.75 170.625 C-101.54219712 176.33558963 -95.17175576 182.21530288 -87.94360352 183.31201172 C-85.6892572 183.47962666 -83.44734977 183.57105644 -81.1875 183.625 C-73.10629837 183.89370163 -73.10629837 183.89370163 -72 185 C-69.65747082 185.16210541 -67.3420011 185.26028334 -64.99609375 185.31640625 C-64.26302002 185.33727798 -63.52994629 185.35814972 -62.7746582 185.37965393 C-60.32905592 185.44670717 -57.88335172 185.50530535 -55.4375 185.5625 C-54.59510773 185.58334656 -53.75271545 185.60419312 -52.88479614 185.62567139 C4.53923748 191.14629797 4.53923748 191.14629797 57 178 C57.9075 177.0925 58.815 176.185 59.75 175.25 C60.4925 174.5075 61.235 173.765 62 173 C62.66 173 63.32 173 64 173 C64.20496094 172.38511719 64.40992188 171.77023438 64.62109375 171.13671875 C65.74739583 167.7578125 66.87369792 164.37890625 68 161 C68.10604793 158.53406297 68.15722729 156.09597447 68.16113281 153.62963867 C68.16609772 152.88115662 68.17106262 152.13267456 68.17617798 151.36151123 C68.19080111 148.88032103 68.19760612 146.39919502 68.203125 143.91796875 C68.20888164 142.18459574 68.21463931 140.45122273 68.22039795 138.71784973 C68.23091201 135.07532455 68.23675027 131.43282143 68.24023438 127.7902832 C68.24568328 123.15851323 68.26963142 118.52704258 68.29820633 113.89536572 C68.31699249 110.30818383 68.32204699 106.72107126 68.32357025 103.13384438 C68.32656757 101.4288808 68.33449526 99.72391756 68.34775543 98.01900291 C68.76985882 77.47750566 68.76985882 77.47750566 59.875 59.75 C58.92625 58.8425 57.9775 57.935 57 57 C55.46746117 55.34409042 53.9476806 53.67632526 52.4375 52 C51.69371094 51.175 50.94992187 50.35 50.18359375 49.5 C48 47 48 47 46.19921875 44.51953125 C43.31622335 41.21663243 40.02505148 39.07484249 36.375 36.6875 C24.38537349 28.64552829 14.50249139 19.86272705 5 9 C4.46375 8.40316406 3.9275 7.80632813 3.375 7.19140625 C0 3.34659091 0 3.34659091 0 0 Z " fill="#9E9085" transform="translate(208,30)"/>
<path d="M0 0 C13.85098538 8.13294332 24.91214431 18.63722715 36.02539062 30.09863281 C41.35792444 35.55122793 46.97714578 40.32996575 53 45 C65.68254754 55.16657037 72.67841198 62.23584226 75 79 C75.47534237 84.68282559 75.37678866 90.38464247 75.328125 96.08203125 C75.3250585 97.67388224 75.32318917 99.26573595 75.32244873 100.85758972 C75.31789076 104.1594808 75.3036267 107.4611218 75.28125 110.76293945 C75.25266741 115.00210696 75.24200348 119.2410814 75.2375679 123.48033619 C75.23342617 126.75129631 75.22362411 130.02221733 75.21169281 133.29315758 C75.20599046 134.85812761 75.20123163 136.42310137 75.19742584 137.98807716 C75.19059205 140.15854264 75.17698172 142.32885162 75.16113281 144.49926758 C75.15430481 145.73389236 75.14747681 146.96851715 75.14044189 148.24055481 C75 151 75 151 74 152 C73.87625 153.11375 73.7525 154.2275 73.625 155.375 C72.98865211 159.06581774 72.71233227 159.73972311 70 162 C69.67 162.99 69.34 163.98 69 165 C68.34 164.67 67.68 164.34 67 164 C67.33 163.01 67.66 162.02 68 161 C68.10604793 158.53406297 68.15722729 156.09597447 68.16113281 153.62963867 C68.16609772 152.88115662 68.17106262 152.13267456 68.17617798 151.36151123 C68.19080111 148.88032103 68.19760612 146.39919502 68.203125 143.91796875 C68.20888164 142.18459574 68.21463931 140.45122273 68.22039795 138.71784973 C68.23091201 135.07532455 68.23675027 131.43282143 68.24023438 127.7902832 C68.24568328 123.15851323 68.26963142 118.52704258 68.29820633 113.89536572 C68.31699249 110.30818383 68.32204699 106.72107126 68.32357025 103.13384438 C68.32656757 101.4288808 68.33449526 99.72391756 68.34775543 98.01900291 C68.76985882 77.47750566 68.76985882 77.47750566 59.875 59.75 C58.92625 58.8425 57.9775 57.935 57 57 C55.46746117 55.34409042 53.9476806 53.67632526 52.4375 52 C51.69371094 51.175 50.94992187 50.35 50.18359375 49.5 C48 47 48 47 46.19921875 44.51953125 C43.31622335 41.21663243 40.02505148 39.07484249 36.375 36.6875 C24.38537349 28.64552829 14.50249139 19.86272705 5 9 C4.46375 8.40316406 3.9275 7.80632813 3.375 7.19140625 C0 3.34659091 0 3.34659091 0 0 Z " fill="#AAA9AA" transform="translate(208,30)"/>
<path d="M0 0 C0.99 0.495 0.99 0.495 2 1 C-6.66659163 14.90204119 -19.52522041 24.22141634 -32.89331055 33.28344727 C-36.34741515 35.65339359 -38.95131677 37.78070198 -41.3125 41.3125 C-42.73828125 43.42578125 -42.73828125 43.42578125 -44 45 C-44.66 45 -45.32 45 -46 45 C-46.24878906 45.57878906 -46.49757813 46.15757813 -46.75390625 46.75390625 C-48.17449186 49.31452295 -49.80787986 50.9347846 -51.9375 52.9375 C-58.51845497 59.3875499 -61.166657 65.90132426 -61.31230164 75.13822937 C-61.31446182 75.88917374 -61.31662201 76.6401181 -61.31884766 77.41381836 C-61.32889328 78.2243869 -61.3389389 79.03495544 -61.34928894 79.87008667 C-61.37997038 82.52666571 -61.39711391 85.18314467 -61.4140625 87.83984375 C-61.43278627 89.69072827 -61.45236058 91.54160437 -61.4727478 93.39247131 C-61.52394729 98.24702981 -61.56363805 103.10161595 -61.60089111 107.95629883 C-61.64100734 112.91689828 -61.69206485 117.87738397 -61.7421875 122.83789062 C-61.83880245 132.55851369 -61.9232532 142.27920118 -62 152 C-62.33 152 -62.66 152 -63 152 C-63.13277344 151.38511719 -63.26554687 150.77023438 -63.40234375 150.13671875 C-63.57894531 149.32847656 -63.75554687 148.52023438 -63.9375 147.6875 C-64.19853516 146.48673828 -64.19853516 146.48673828 -64.46484375 145.26171875 C-64.99886159 142.854599 -64.99886159 142.854599 -66 140 C-67.55676627 124.73591598 -67.17116047 109.02544867 -67.28610229 93.69378662 C-67.30354991 91.70677551 -67.32778288 89.71981114 -67.35916138 87.73297119 C-67.75325569 61.37600975 -67.75325569 61.37600975 -59.5625 51.4375 C-56.38985143 48.21779943 -53.01878386 45.43589556 -49.3359375 42.81640625 C-41.36331835 37.0255944 -34.31320199 30.16830759 -27.19921875 23.375 C-18.48591695 15.08068916 -9.52515113 7.34914678 0 0 Z " fill="#A7A3A2" transform="translate(158,36)"/>
<path d="M0 0 C13.85098538 8.13294332 24.91214431 18.63722715 36.02539062 30.09863281 C41.35854258 35.55185998 46.98172385 40.32351562 53 45 C55.54477802 47.05554661 58.05888698 49.14462576 60.5625 51.25 C61.17673828 51.75273438 61.79097656 52.25546875 62.42382812 52.7734375 C65.51557877 55.38348998 67.29053108 57.00049576 68 61 C66.30575811 60.28841841 64.61307054 59.57284012 62.9296875 58.8359375 C61.29978354 58.12986574 59.65158475 57.4662523 58 56.8125 C53.02256612 53.80530036 49.62238779 49.26915049 46.265625 44.57421875 C43.34655614 41.25755258 40.05357669 39.09349961 36.375 36.6875 C24.38537349 28.64552829 14.50249139 19.86272705 5 9 C4.46375 8.40316406 3.9275 7.80632813 3.375 7.19140625 C0 3.34659091 0 3.34659091 0 0 Z " fill="#7B706C" transform="translate(208,30)"/>
<path d="M0 0 C1.43731258 0.77539231 2.85338788 1.5909923 4.25 2.4375 C11.8843989 6.73962055 19.25293686 7.86552649 28 7 C31.73838806 5.79101743 31.73838806 5.79101743 35 4 C37.33124929 2.99515117 39.66443537 1.99477753 42 1 C42.804375 0.484375 43.60875 -0.03125 44.4375 -0.5625 C47 -1 47 -1 48.98046875 0.07421875 C52.61079315 2.69942601 55.41580299 5.3243409 58 9 C55.87970402 14.22179277 51.64272163 16.17779764 47 19 C46.0925 19.5775 45.185 20.155 44.25 20.75 C27.38870382 27.23511392 8.88848094 24.45423084 -7.25 17.4375 C-10.36228835 15.99924554 -12.83031815 14.69801346 -15 12 C-15 8.42823911 -14.08357659 7.09750602 -11.75 4.375 C-4.78827793 -1.63739633 -4.78827793 -1.63739633 0 0 Z M40.5 3.3125 C28.83274396 9.18797614 20.02998428 10.07813352 7.5 6.0625 C4.25336491 4.93899338 1.87550002 3.91700002 -1 2 C-4.42318917 2.14263288 -6.32879221 2.41539967 -8.9375 4.6875 C-10.46869133 8.0200929 -10.26453523 9.55765411 -9 13 C-0.10140662 21.30535382 10.47095731 22.36194561 22.125 22.4375 C23.13812256 22.4475708 24.15124512 22.4576416 25.19506836 22.46801758 C33.79091684 22.3693916 41.87887166 21.05581099 49 15.9375 C49.721875 15.43089844 50.44375 14.92429688 51.1875 14.40234375 C53.10276334 12.98160745 53.10276334 12.98160745 55 11 C54.78336074 8.40032886 54.20702769 7.22622575 52.44140625 5.296875 C51.82136719 4.78640625 51.20132813 4.2759375 50.5625 3.75 C49.63630859 2.96882812 49.63630859 2.96882812 48.69140625 2.171875 C45.49526866 -0.04253903 43.63376426 1.63157265 40.5 3.3125 Z " fill="#D7C9CC" transform="translate(166,152)"/>
<path d="M0 0 C0.66 0 1.32 0 2 0 C2.26554687 0.60328125 2.53109375 1.2065625 2.8046875 1.828125 C3.33449219 3.02695313 3.33449219 3.02695313 3.875 4.25 C4.22304688 5.03890625 4.57109375 5.8278125 4.9296875 6.640625 C5.91422996 8.93705548 5.91422996 8.93705548 7.04795837 10.72143555 C8.34409612 13.82354087 8.27465641 16.45704784 8.30297852 19.81640625 C8.31141785 20.49331512 8.31985718 21.170224 8.32855225 21.86764526 C8.3542861 24.09927088 8.366461 26.33076423 8.37890625 28.5625 C8.39508676 30.11662841 8.41226734 31.67074671 8.43040466 33.22485352 C8.47606189 37.3134696 8.510879 41.40209937 8.54260254 45.49084473 C8.59449872 52.03517564 8.65972712 58.57935712 8.73081779 65.12350464 C8.75361116 67.4079253 8.76990831 69.69232717 8.78553772 71.97680664 C8.7989483 73.37907109 8.81256344 74.7813336 8.82641602 76.18359375 C8.83592789 77.40618896 8.84543976 78.62878418 8.85523987 79.88842773 C8.97578698 82.47954893 9.3469076 84.52206647 10 87 C9.55414013 93.35350318 9.55414013 93.35350318 7.5 95.75 C7.005 96.1625 6.51 96.575 6 97 C5.67 97.99 5.34 98.98 5 100 C4.34 99.67 3.68 99.34 3 99 C3.33 98.01 3.66 97.02 4 96 C4.10604793 93.53406297 4.15722729 91.09597447 4.16113281 88.62963867 C4.16609772 87.88115662 4.17106262 87.13267456 4.17617798 86.36151123 C4.19080111 83.88032103 4.19760612 81.39919502 4.203125 78.91796875 C4.20888164 77.18459574 4.21463931 75.45122273 4.22039795 73.71784973 C4.23091201 70.07532455 4.23675027 66.43282143 4.24023438 62.7902832 C4.24568328 58.15851323 4.26963142 53.52704258 4.29820633 48.89536572 C4.31699249 45.30818383 4.32204699 41.72107126 4.32357025 38.13384438 C4.32656757 36.4288808 4.33449526 34.72391756 4.34775543 33.01900291 C4.43070636 21.52142959 3.67426901 11.02280704 0 0 Z " fill="#C9CACC" transform="translate(272,95)"/>
<path d="M0 0 C0 3 0 3 -1.47297668 6.65454102 C-3.16735075 11.02804697 -3.4413101 14.87320711 -3.43237305 19.52734375 C-3.4425647 20.33805832 -3.45275635 21.14877289 -3.46325684 21.98405457 C-3.49319364 24.6352751 -3.50262291 27.28613322 -3.51171875 29.9375 C-3.5285798 31.78695864 -3.54673195 33.63640593 -3.56611633 35.48583984 C-3.61346765 40.33217824 -3.64337299 45.17847056 -3.66955566 50.02496338 C-3.69943645 54.97897436 -3.74594086 59.93282683 -3.79101562 64.88671875 C-3.87687945 74.59106266 -3.94429975 84.29543934 -4 94 C-4.33 94 -4.66 94 -5 94 C-5.13277344 93.38511719 -5.26554687 92.77023438 -5.40234375 92.13671875 C-5.57894531 91.32847656 -5.75554687 90.52023438 -5.9375 89.6875 C-6.19853516 88.48673828 -6.19853516 88.48673828 -6.46484375 87.26171875 C-6.99886159 84.854599 -6.99886159 84.854599 -8 82 C-8.35462258 77.80011003 -8.46625535 73.58640211 -8.625 69.375 C-8.6765625 68.20453125 -8.728125 67.0340625 -8.78125 65.828125 C-8.82507813 64.71695313 -8.86890625 63.60578125 -8.9140625 62.4609375 C-8.9548291 61.43790527 -8.9955957 60.41487305 -9.03759766 59.36083984 C-9 57 -9 57 -8 56 C-7.13067939 50.34941603 -6.89861102 44.74510818 -6.7890625 39.03515625 C-6.77470154 38.31242523 -6.76034058 37.58969421 -6.74554443 36.84506226 C-6.68820299 33.82556072 -6.63361556 30.80622996 -6.59863281 27.78637695 C-6.33395326 6.65536545 -6.33395326 6.65536545 -1.39697266 1.24243164 C-0.70547119 0.62742798 -0.70547119 0.62742798 0 0 Z " fill="#B4ABAD" transform="translate(100,94)"/>
<path d="M0 0 C0.33 0 0.66 0 1 0 C1.50206967 8.86989752 0.0771678 18.10411044 -6.00732422 24.95507812 C-12.91034646 32.03909115 -18.47041117 35.38245384 -28.35997009 35.75846863 C-33.66238176 35.79752138 -38.95068082 35.6680562 -44.25 35.5 C-46.45957066 35.45980831 -48.66921191 35.42331762 -50.87890625 35.390625 C-56.25416221 35.30311533 -61.62674665 35.16979719 -67 35 C-67 34.67 -67 34.34 -67 34 C-66.20529297 33.98541748 -65.41058594 33.97083496 -64.59179688 33.95581055 C-36.8981455 34.88342641 -36.8981455 34.88342641 -13.25 23.25 C-12.5075 22.5075 -11.765 21.765 -11 21 C-10.34 21 -9.68 21 -9 21 C-7.58622659 18.36095629 -6.62759865 15.92879371 -6 13 C-5.34 13 -4.68 13 -4 13 C-3.814375 12.071875 -3.814375 12.071875 -3.625 11.125 C-3 9 -3 9 -1 7 C-0.59952556 4.67724823 -0.2602896 2.34260643 0 0 Z " fill="#AAA5A1" transform="translate(281,182)"/>
<path d="M0 0 C0.66902344 0.49371094 1.33804688 0.98742187 2.02734375 1.49609375 C10.05137736 6.84903966 16.12777618 7.85042624 25.60546875 7.9296875 C29 8 29 8 30 9 C32.23787212 9.1538487 34.480509 9.23862197 36.72290039 9.29711914 C37.4253035 9.31677231 38.1277066 9.33642548 38.85139465 9.35667419 C41.18338319 9.42077194 43.51548865 9.47797672 45.84765625 9.53515625 C47.46049614 9.57814496 49.07332468 9.6215614 50.68614197 9.66539001 C54.93903369 9.77980696 59.19205544 9.88838922 63.44512939 9.99578857 C67.78187176 10.10632327 72.11846724 10.22233192 76.45507812 10.33789062 C84.96991735 10.56397485 93.48490156 10.7839001 102 11 C102 11.33 102 11.66 102 12 C54.5976448 12.19079529 54.5976448 12.19079529 32.875 11.5625 C32.15460541 11.54285187 31.43421082 11.52320374 30.69198608 11.50296021 C24.04405654 11.31639575 17.57898244 11.02364013 11 10 C11 9.34 11 8.68 11 8 C10.29875 7.938125 9.5975 7.87625 8.875 7.8125 C4.91084133 6.69219429 2.97783887 4.83933474 0 2 C0 1.34 0 0.68 0 0 Z " fill="#C0BAB6" transform="translate(106,206)"/>
<path d="M0 0 C3.53930735 -0.10510952 4.61298946 0.04586667 7.68994141 2.09716797 C0.87744336 3.08063332 -5.88725042 3.42098692 -12.76318359 3.65576172 C-14.58695526 3.71913979 -14.58695526 3.71913979 -16.4475708 3.78379822 C-30.62215423 4.23117234 -44.79353059 4.21242472 -58.97351074 4.16583252 C-62.52839524 4.15532988 -66.08328784 4.15097924 -69.63818359 4.14599609 C-76.52882706 4.13548777 -83.41944054 4.11858158 -90.31005859 4.09716797 C-90.31005859 3.76716797 -90.31005859 3.43716797 -90.31005859 3.09716797 C-89.25223175 3.08170677 -89.25223175 3.08170677 -88.17303467 3.06593323 C-81.52250416 2.96789899 -74.87205971 2.86537618 -68.22167587 2.75782871 C-64.80276387 2.70269726 -61.38384317 2.6492932 -57.96484375 2.59985352 C-54.03295247 2.54292121 -50.10120223 2.4784456 -46.16943359 2.41357422 C-44.94327332 2.39686172 -43.71711304 2.38014923 -42.45379639 2.3629303 C-41.31291565 2.34298508 -40.17203491 2.32303986 -38.99658203 2.30249023 C-37.9928656 2.28694595 -36.98914917 2.27140167 -35.95501709 2.25538635 C-33.58216606 2.11344513 -31.59009552 1.72322904 -29.31005859 1.09716797 C-27.29570222 0.95058376 -25.27776622 0.85019639 -23.25927734 0.78076172 C-21.49874023 0.71791992 -21.49874023 0.71791992 -19.70263672 0.65380859 C-18.47996094 0.61449219 -17.25728516 0.57517578 -15.99755859 0.53466797 C-14.78648437 0.49148437 -13.57541016 0.44830078 -12.32763672 0.40380859 C-8.21863257 0.2621188 -4.10777195 0.17278517 0 0 Z " fill="#726864" transform="translate(249.31005859375,215.90283203125)"/>
<path d="M0 0 C1.43731258 0.77539231 2.85338788 1.5909923 4.25 2.4375 C11.8843989 6.73962055 19.25293686 7.86552649 28 7 C31.73838806 5.79101743 31.73838806 5.79101743 35 4 C38.98205957 2.28359501 42.96542379 0.58937851 47 -1 C47.495 -0.01 47.495 -0.01 48 1 C31.92222982 8.78688242 21.80807778 12.01384797 4.53125 6.03515625 C2 5 2 5 -1 3 C-4.05890142 2.75949193 -4.05890142 2.75949193 -7 4 C-8.47506116 6.2836132 -9.1428103 8.38080926 -10 11 C-10.66 11 -11.32 11 -12 11 C-12.8125 8.8125 -12.8125 8.8125 -13 6 C-9.2348197 1.37420706 -5.95550216 -1.92007993 0 0 Z " fill="#A89286" transform="translate(166,152)"/>
<path d="M0 0 C1.88422417 2.82633625 2.25622604 3.78087361 2.75 6.9375 C4.41795425 15.01251661 8.13648822 22.25071248 14 28 C14 28.66 14 29.32 14 30 C12.68 29.67 11.36 29.34 10 29 C10 28.34 10 27.68 10 27 C9.01 27 8.02 27 7 27 C7 27.66 7 28.32 7 29 C4 28 4 28 2.83203125 26.34765625 C-0.99210075 17.77632591 -0.36010769 9.18274622 0 0 Z " fill="#A89C9A" transform="translate(92,176)"/>
<path d="M0 0 C0.66 0 1.32 0 2 0 C5.20982781 6.17120729 6.58300818 11.11830344 6.4699707 18.05224609 C6.4732563 19.33446045 6.4732563 19.33446045 6.47660828 20.64257812 C6.47889911 23.43660631 6.45278536 26.22955191 6.42578125 29.0234375 C6.42085214 30.97636583 6.41755666 32.92929889 6.41581726 34.88223267 C6.40820436 38.95891604 6.38771995 43.0352449 6.35668945 47.11181641 C6.31695854 52.34077264 6.2990519 57.56949965 6.28938007 62.79858971 C6.27942086 67.79023668 6.25954141 72.78182774 6.23828125 77.7734375 C6.23318763 79.20261065 6.23318763 79.20261065 6.2279911 80.66065598 C6.2164358 83.34854584 6.19792149 86.03628977 6.17700195 88.72412109 C6.17431305 89.52206085 6.17162415 90.32000061 6.16885376 91.14212036 C6.13745429 94.35242338 6.02246697 96.9325991 5 100 C4.34 99.67 3.68 99.34 3 99 C3.33 98.01 3.66 97.02 4 96 C4.10604793 93.53406297 4.15722729 91.09597447 4.16113281 88.62963867 C4.16609772 87.88115662 4.17106262 87.13267456 4.17617798 86.36151123 C4.19080111 83.88032103 4.19760612 81.39919502 4.203125 78.91796875 C4.20888164 77.18459574 4.21463931 75.45122273 4.22039795 73.71784973 C4.23091201 70.07532455 4.23675027 66.43282143 4.24023438 62.7902832 C4.24568328 58.15851323 4.26963142 53.52704258 4.29820633 48.89536572 C4.31699249 45.30818383 4.32204699 41.72107126 4.32357025 38.13384438 C4.32656757 36.4288808 4.33449526 34.72391756 4.34775543 33.01900291 C4.43070636 21.52142959 3.67426901 11.02280704 0 0 Z " fill="#E1E3E3" transform="translate(272,95)"/>
<path d="M0 0 C0.99 0.33 1.98 0.66 3 1 C2.78937424 1.52528793 2.57874847 2.05057587 2.36174011 2.59178162 C0.08486714 8.73304551 -0.46733071 14.20768767 -0.51171875 20.72265625 C-0.52966995 21.70874374 -0.54762115 22.69483124 -0.56611633 23.71080017 C-0.61984528 26.8279913 -0.6539944 29.94503264 -0.6875 33.0625 C-0.72070613 35.1894738 -0.75519879 37.31642793 -0.79101562 39.44335938 C-0.87555002 44.6287975 -0.94253867 49.81419409 -1 55 C-1.66 55 -2.32 55 -3 55 C-3.07461488 48.77444018 -3.1288209 42.54914544 -3.16479492 36.32324219 C-3.17980487 34.2089382 -3.2002192 32.09466493 -3.22631836 29.98046875 C-3.26304633 26.92700579 -3.27980474 23.87395743 -3.29296875 20.8203125 C-3.30845261 19.88760529 -3.32393646 18.95489807 -3.33988953 17.993927 C-3.34151453 11.53833325 -2.17098579 6.07350878 0 0 Z " fill="#908787" transform="translate(94,95)"/>
<path d="M0 0 C1.64623471 0.0018681 3.29246998 0.00329015 4.93870544 0.00428772 C9.24420746 0.00808204 13.54967504 0.01788554 17.85516357 0.0289917 C22.25955744 0.03927259 26.66395694 0.04379957 31.06835938 0.04882812 C39.69011986 0.05951095 48.31185251 0.07654975 56.93359375 0.09765625 C53.66104062 2.03605972 51.16135036 2.36927023 47.38085938 2.43237305 C46.26449097 2.45547043 45.14812256 2.47856781 43.9979248 2.50236511 C42.79075806 2.51705338 41.58359131 2.53174164 40.33984375 2.546875 C38.45513367 2.57948174 38.45513367 2.57948174 36.53234863 2.61274719 C33.86249952 2.6567127 31.19291449 2.69691316 28.52294922 2.73071289 C25.82518657 2.76511718 23.12770893 2.80649416 20.43017578 2.85571289 C4.88574452 3.1383215 -10.55180218 3.1768433 -26.06640625 2.09765625 C-26.06640625 1.76765625 -26.06640625 1.43765625 -26.06640625 1.09765625 C-17.39001782 -0.15046533 -8.74248283 -0.02928433 0 0 Z " fill="#8B817D" transform="translate(163.06640625,216.90234375)"/>
<path d="M0 0 C0 3 0 3 -1.47297668 6.65454102 C-3.16735075 11.02804697 -3.4413101 14.87320711 -3.43237305 19.52734375 C-3.4425647 20.33805832 -3.45275635 21.14877289 -3.46325684 21.98405457 C-3.49319364 24.6352751 -3.50262291 27.28613322 -3.51171875 29.9375 C-3.5285798 31.78695864 -3.54673195 33.63640593 -3.56611633 35.48583984 C-3.61346765 40.33217824 -3.64337299 45.17847056 -3.66955566 50.02496338 C-3.69943645 54.97897436 -3.74594086 59.93282683 -3.79101562 64.88671875 C-3.87687945 74.59106266 -3.94429975 84.29543934 -4 94 C-4.33 94 -4.66 94 -5 94 C-5.06955102 82.89065726 -5.12283728 71.78136644 -5.15543652 60.6718502 C-5.17108356 55.51308876 -5.19230444 50.35447642 -5.22631836 45.19580078 C-5.25894586 40.21615765 -5.27686025 35.23665783 -5.28463173 30.25691605 C-5.29016913 28.35833099 -5.30098235 26.45975366 -5.31719017 24.56122971 C-5.33900947 21.8992094 -5.34196504 19.23777913 -5.34057617 16.57568359 C-5.351362 15.79309174 -5.36214783 15.01049988 -5.3732605 14.20419312 C-5.34090059 8.46143596 -4.20074989 4.20074989 0 0 Z " fill="#CDC9C8" transform="translate(100,94)"/>
<path d="M0 0 C0.33 0 0.66 0 1 0 C1.54040478 9.54715107 -0.39460267 17.78200657 -6.40234375 25.34375 C-8.14724099 27.15264102 -9.90491752 28.61174333 -12 30 C-12.66 30 -13.32 30 -14 30 C-13.62403791 27.21788056 -13.32681541 25.4120716 -11.5625 23.1875 C-10 22 -10 22 -8 22 C-7.34 19.03 -6.68 16.06 -6 13 C-5.34 13 -4.68 13 -4 13 C-3.87625 12.38125 -3.7525 11.7625 -3.625 11.125 C-3 9 -3 9 -1 7 C-0.59952556 4.67724823 -0.2602896 2.34260643 0 0 Z " fill="#A6A09E" transform="translate(281,182)"/>
<path d="M0 0 C0.66 0.33 1.32 0.66 2 1 C-3.01979692 9.05223397 -8.8263892 14.90307943 -16 21 C-16.99 20.67 -17.98 20.34 -19 20 C-18.34 18.68 -17.68 17.36 -17 16 C-16.34 16 -15.68 16 -15 16 C-15 15.34 -15 14.68 -15 14 C-14.34 14 -13.68 14 -13 14 C-13 13.34 -13 12.68 -13 12 C-12.34 11.67 -11.68 11.34 -11 11 C-10.62875 10.278125 -10.2575 9.55625 -9.875 8.8125 C-7.27547695 4.91321542 -3.81973432 2.64024391 0 0 Z " fill="#BAB7B7" transform="translate(158,36)"/>
<path d="M0 0 C7.70288894 1.13277778 13.84344322 5.27732959 19 11 C19.73046875 13.22265625 19.73046875 13.22265625 20 15 C18.30575811 14.28841841 16.61307054 13.57284012 14.9296875 12.8359375 C13.29978354 12.12986574 11.65158475 11.4662523 10 10.8125 C5.82216423 8.28839089 2.93460792 4.87229329 0 1 C0 0.67 0 0.34 0 0 Z " fill="#8E867E" transform="translate(256,76)"/>
<path d="M0 0 C3.60571107 0.59283087 5.54429438 2.02741777 8.25 4.4375 C8.95640625 5.05496094 9.6628125 5.67242187 10.390625 6.30859375 C12 8 12 8 12 10 C12.721875 10.226875 13.44375 10.45375 14.1875 10.6875 C17.58897247 12.27485382 19.41025643 14.2869353 22 17 C24.29958994 19.04034598 26.64448698 21.02462741 29 23 C24.79239451 23 22.40465942 20.75462814 19.125 18.375 C18.51269531 17.94832031 17.90039062 17.52164063 17.26953125 17.08203125 C13.13156539 14.11368315 10.17326404 10.97333743 7 7 C5.76267681 5.85840781 4.49679523 4.74577567 3.1875 3.6875 C2.10882004 2.81121628 1.04086571 1.92088119 0 1 C0 0.67 0 0.34 0 0 Z " fill="#B5B7B6" transform="translate(216,42)"/>
<path d="M0 0 C0.41902588 0.36134033 0.83805176 0.72268066 1.26977539 1.0949707 C4.40650744 3.79270776 7.55681807 6.46997417 10.74609375 9.10546875 C11.9765625 10.1328125 13.20703125 11.16015625 14.4375 12.1875 C15.07365234 12.70763672 15.70980469 13.22777344 16.36523438 13.76367188 C17.96707519 15.11086989 19.49098261 16.54958523 21 18 C21 18.99 21 19.98 21 21 C20.67 20.34 20.34 19.68 20 19 C19.09507812 18.70738281 18.19015625 18.41476563 17.2578125 18.11328125 C13.7921102 16.92895852 11.69354494 15.498 8.875 13.1875 C8.04742187 12.52105469 7.21984375 11.85460937 6.3671875 11.16796875 C3.90801864 8.91575965 1.87890078 6.75774146 0 4 C0 2.68 0 1.36 0 0 Z " fill="#6E625E" transform="translate(241,58)"/>
<path d="M0 0 C0.33 0.99 0.66 1.98 1 3 C0.443125 3.226875 -0.11375 3.45375 -0.6875 3.6875 C-4.83741346 6.04285629 -7.68573974 9.57977119 -10.5625 13.3125 C-11.7690625 14.6428125 -11.7690625 14.6428125 -13 16 C-14.32 16 -15.64 16 -17 16 C-14.73289524 9.32657368 -9.8195029 4.96139332 -4.125 1 C-2 0 -2 0 0 0 Z " fill="#928C8A" transform="translate(112,78)"/>
<path d="M0 0 C0.66 0.33 1.32 0.66 2 1 C2 1.99 2 2.98 2 4 C2.99 4 3.98 4 5 4 C6.12535156 5.15242187 6.12535156 5.15242187 7.2734375 6.328125 C14.28365768 13.19773905 25.49905901 14.78671357 35 15 C35 15.33 35 15.66 35 16 C23.14878168 16.76872767 9.67077662 14.4413745 0.26953125 6.546875 C-0.14941406 6.03640625 -0.56835938 5.5259375 -1 5 C-0.6875 2.3125 -0.6875 2.3125 0 0 Z " fill="#BAB3B6" transform="translate(152,159)"/>
<path d="M0 0 C2.00958663 0.63718601 4.00736409 1.31163487 6 2 C7.216875 2.37125 8.43375 2.7425 9.6875 3.125 C13.55358486 5.31334992 14.26641024 6.55751411 15.51171875 10.66015625 C16.36396215 14.7441066 16.75276778 18.83967855 17 23 C16.67 23 16.34 23 16 23 C16 21.35 16 19.7 16 18 C15.34 18 14.68 18 14 18 C13.32645501 16.56570999 12.66140299 15.12742943 12 13.6875 C11.62875 12.88699219 11.2575 12.08648437 10.875 11.26171875 C10 9 10 9 10 6 C9.34 6 8.68 6 8 6 C7.67 6.99 7.34 7.98 7 9 C6.401875 8.071875 5.80375 7.14375 5.1875 6.1875 C3.54727155 3.79745282 2.1281083 1.91529747 0 0 Z " fill="#B4B0A5" transform="translate(265,86)"/>
<path d="M0 0 C0.66 0 1.32 0 2 0 C2.67354499 1.43429001 3.33859701 2.87257057 4 4.3125 C4.556875 5.51326172 4.556875 5.51326172 5.125 6.73828125 C6 9 6 9 6 12 C6.66 12 7.32 12 8 12 C8 13.65 8 15.3 8 17 C8.66 17.33 9.32 17.66 10 18 C9.67 23.61 9.34 29.22 9 35 C8.34 34.67 7.68 34.34 7 34 C6.98582031 32.82824219 6.97164063 31.65648437 6.95703125 30.44921875 C6.73943487 21.93666717 6.37679556 14.88078501 2.15625 7.26171875 C0.9168497 4.83735127 0.41728003 2.6791275 0 0 Z " fill="#B6AFAC" transform="translate(273,92)"/>
<path d="M0 0 C0.33 0.66 0.66 1.32 1 2 C1.66 2.33 2.32 2.66 3 3 C2.48050781 3.37511719 1.96101563 3.75023438 1.42578125 4.13671875 C-4.91781602 8.79181693 -10.04382305 13.91098261 -15 20 C-15.66 19.67 -16.32 19.34 -17 19 C-16.42729683 15.48450582 -15.2727921 13.95421238 -12.65625 11.58203125 C-11.98722656 10.96779297 -11.31820312 10.35355469 -10.62890625 9.72070312 C-9.92636719 9.09099609 -9.22382812 8.46128906 -8.5 7.8125 C-7.79746094 7.17119141 -7.09492187 6.52988281 -6.37109375 5.86914062 C-5.07573696 4.68734594 -3.77721089 3.50900965 -2.47460938 2.33520508 C-1.63388255 1.57395756 -0.80197237 0.80197237 0 0 Z " fill="#96898A" transform="translate(129,61)"/>
<path d="M0 0 C0.99 0.33 1.98 0.66 3 1 C-4.44213378 7.13746341 -14.43962902 10.67033204 -24 11 C-24.33 10.34 -24.66 9.68 -25 9 C-23.824375 8.896875 -22.64875 8.79375 -21.4375 8.6875 C-17.22841893 8.16136487 -13.84750848 6.81882219 -10 5 C-8.75161179 4.4753151 -7.50162414 3.95441815 -6.25 3.4375 C-2.94324457 2.08546341 -2.94324457 2.08546341 0 0 Z " fill="#ADA4A0" transform="translate(211,151)"/>
<path d="M0 0 C0.99 0 1.98 0 3 0 C3 0.66 3 1.32 3 2 C3.928125 2.1546875 3.928125 2.1546875 4.875 2.3125 C7 3 7 3 9 6 C9.125 8.6875 9.125 8.6875 9 11 C4.82117329 8.43571997 1.87494471 5.98069267 -1 2 C-0.67 1.34 -0.34 0.68 0 0 Z " fill="#94827A" transform="translate(99,203)"/>
<path d="M0 0 C1.9375 0.8125 1.9375 0.8125 4 2 C4.33 2.99 4.66 3.98 5 5 C6.65984798 5.68346682 8.32836805 6.34588315 10 7 C11.27393969 7.75253822 12.52357141 8.54728688 13.75 9.375 C14.63945312 9.97441406 14.63945312 9.97441406 15.546875 10.5859375 C17 12 17 12 17.515625 14.1015625 C17.67546875 14.72804688 17.8353125 15.35453125 18 16 C18.99 16.33 19.98 16.66 21 17 C20.34 17.33 19.68 17.66 19 18 C18.34 17.67 17.68 17.34 17 17 C17 16.34 17 15.68 17 15 C16.443125 14.773125 15.88625 14.54625 15.3125 14.3125 C12.37158957 12.64333462 10.3864325 10.3864325 8 8 C6.700625 7.2575 6.700625 7.2575 5.375 6.5 C2.56340838 4.72425792 1.50234646 2.92562205 0 0 Z " fill="#96948F" transform="translate(211,35)"/>
<path d="M0 0 C0.66 0.99 1.32 1.98 2 3 C0.4411666 6.82622743 -1.95433582 9.25147379 -5 12 C-5.99 12.33 -6.98 12.66 -8 13 C-7.62403791 10.21788056 -7.32681541 8.4120716 -5.5625 6.1875 C-4 5 -4 5 -2 5 C-1.34 3.35 -0.68 1.7 0 0 Z " fill="#9F978E" transform="translate(275,199)"/>
<path d="M0 0 C0 3.7280222 -1.37314595 4.73975461 -3.75390625 7.4375 C-5.3663934 9.45942746 -6.20812082 11.55237345 -7 14 C-9.64 14 -12.28 14 -15 14 C-14 12 -14 12 -11.75 10.6875 C-8.84034032 9.04893947 -8.84034032 9.04893947 -6.3125 6.3125 C-5.549375 5.549375 -4.78625 4.78625 -4 4 C-3.34 4 -2.68 4 -2 4 C-1.34 2.68 -0.68 1.36 0 0 Z " fill="#B1B1AA" transform="translate(274,199)"/>
<path d="M0 0 C0.99 0.495 0.99 0.495 2 1 C1.99476318 1.56509277 1.98952637 2.13018555 1.98413086 2.71240234 C1.96337578 5.2665903 1.9503446 7.82076053 1.9375 10.375 C1.92912109 11.26445312 1.92074219 12.15390625 1.91210938 13.0703125 C1.90888672 13.92109375 1.90566406 14.771875 1.90234375 15.6484375 C1.89710693 16.43395996 1.89187012 17.21948242 1.88647461 18.02880859 C1.87426047 20.07772668 1.87426047 20.07772668 3 22 C3.04022391 24.3329866 3.04320247 26.66706666 3 29 C0.55312961 26.55312961 0.03963289 24.8880324 -0.11352539 21.45629883 C-0.10828857 20.46654053 -0.10305176 19.47678223 -0.09765625 18.45703125 C-0.09443359 17.38388672 -0.09121094 16.31074219 -0.08789062 15.20507812 C-0.07951172 14.08552734 -0.07113281 12.96597656 -0.0625 11.8125 C-0.05798828 10.68134766 -0.05347656 9.55019531 -0.04882812 8.38476562 C-0.03703498 5.58979073 -0.0205765 2.7949218 0 0 Z " fill="#ADA4A6" transform="translate(92,152)"/>
<path d="M0 0 C-6.69675136 1.03026944 -13.2314676 1.10152799 -20 1 C-20.33 0.34 -20.66 -0.32 -21 -1 C-4.07142857 -2.71428571 -4.07142857 -2.71428571 0 0 Z " fill="#7D7672" transform="translate(257,218)"/>
<path d="M0 0 C0.66 0.33 1.32 0.66 2 1 C0.5359872 3.84381248 -0.97075193 6.51980792 -3 9 C-6.3125 10 -6.3125 10 -9 10 C-9 9.01 -9 8.02 -9 7 C-7.03125 5.17578125 -7.03125 5.17578125 -4.5 3.3125 C-3.6646875 2.68988281 -2.829375 2.06726562 -1.96875 1.42578125 C-1.3190625 0.95527344 -0.669375 0.48476563 0 0 Z " fill="#B5AEAC" transform="translate(158,36)"/>
<path d="M0 0 C1.12588014 0.95729916 2.2506715 1.91587895 3.375 2.875 C4.00148437 3.40867188 4.62796875 3.94234375 5.2734375 4.4921875 C6.55836651 5.61432007 7.79371975 6.79371975 9 8 C8.625 10.125 8.625 10.125 8 12 C6.33333333 10.33333333 4.66666667 8.66666667 3 7 C2.401875 6.484375 1.80375 5.96875 1.1875 5.4375 C0 4 0 4 0 0 Z " fill="#716A68" transform="translate(241,58)"/>
<path d="M0 0 C3.3 0 6.6 0 10 0 C7.0494171 2.8611713 5.52821019 3.94535757 1.375 4.375 C-2 4 -2 4 -5 2 C-3.35 2 -1.7 2 0 2 C0 1.34 0 0.68 0 0 Z " fill="#9F9A97" transform="translate(256,213)"/>
<path d="M0 0 C3.70567976 2.69503983 4.29823693 6.71682541 5 11 C5.125 14.5 5.125 14.5 5 17 C4.67 17 4.34 17 4 17 C4 15.35 4 13.7 4 12 C3.34 12 2.68 12 2 12 C-0.60018816 8.09971775 -0.15085514 4.52565431 0 0 Z " fill="#A2948A" transform="translate(277,92)"/>
<path d="M0 0 C0.66 0.66 1.32 1.32 2 2 C-1.96 5.96 -5.92 9.92 -10 14 C-10.33 13.01 -10.66 12.02 -11 11 C-9.88121617 9.82737096 -8.75476949 8.66204862 -7.625 7.5 C-6.68527344 6.52546875 -6.68527344 6.52546875 -5.7265625 5.53125 C-4 4 -4 4 -2 4 C-1.34 2.68 -0.68 1.36 0 0 Z " fill="#AAA7A5" transform="translate(110,81)"/>
<path d="M0 0 C0.66 0.66 1.32 1.32 2 2 C1.26829419 3.34345985 0.51394247 4.67460584 -0.25 6 C-0.87648438 7.11375 -0.87648438 7.11375 -1.515625 8.25 C-2.00546875 8.8275 -2.4953125 9.405 -3 10 C-4.32 10 -5.64 10 -7 10 C-5.6062718 5.56541027 -3.39417765 3.12621626 0 0 Z " fill="#858681" transform="translate(102,84)"/>
<path d="M0 0 C0.99 0 1.98 0 3 0 C2 3 2 3 0 4.9375 C-2.05502754 7.05674715 -2.59106845 8.13747914 -3 11 C-3.66 11 -4.32 11 -5 11 C-5.8125 8.8125 -5.8125 8.8125 -6 6 C-3.625 3.25 -3.625 3.25 -1 1 C-0.67 0.67 -0.34 0.34 0 0 Z " fill="#AFA19B" transform="translate(159,152)"/>
<path d="M0 0 C0.66 0 1.32 0 2 0 C2.8680908 1.91040052 3.71901783 3.82860737 4.5625 5.75 C5.03816406 6.81734375 5.51382812 7.8846875 6.00390625 8.984375 C6.9946154 11.98369837 7.16161779 13.13421241 6 16 C5.18082358 14.27398621 4.36993984 12.5440353 3.5625 10.8125 C3.11003906 9.84957031 2.65757812 8.88664062 2.19140625 7.89453125 C1.09618578 5.23368414 0.45045204 2.83215245 0 0 Z " fill="#C3BDAE" transform="translate(273,92)"/>
<path d="M0 0 C3.31152874 -0.36794764 4.60609252 -0.29809215 7.3125 1.75 C9 4 9 4 9 8 C4.7257442 6.4169423 2.73468206 3.49431596 0 0 Z " fill="#85827F" transform="translate(232,53)"/>
<path d="M0 0 C0.66 0.99 1.32 1.98 2 3 C0.35 4.98 -1.3 6.96 -3 9 C-3.66 8.67 -4.32 8.34 -5 8 C-4.45773019 4.20411134 -2.79872437 2.52788007 0 0 Z " fill="#B1A3A3" transform="translate(117,72)"/>
<path d="M0 0 C3.48330216 0.64505596 6.09432866 1.98217268 9 4 C9 4.66 9 5.32 9 6 C5.65626525 5.44271087 2.96687001 4.64826111 0 3 C0 2.01 0 1.02 0 0 Z " fill="#A19390" transform="translate(162,151)"/>
<path d="M0 0 C0.66 0.33 1.32 0.66 2 1 C2 1.99 2 2.98 2 4 C2.99 4 3.98 4 5 4 C5 4.99 5 5.98 5 7 C4.01 7.33 3.02 7.66 2 8 C0.4375 6.8125 0.4375 6.8125 -1 5 C-0.6875 2.3125 -0.6875 2.3125 0 0 Z " fill="#C9B8B5" transform="translate(152,159)"/>
<path d="M0 0 C0.66 0.33 1.32 0.66 2 1 C-1.11016455 4.28788824 -4.01618925 6.83735988 -8 9 C-6.64531705 4.12314139 -4.28324091 2.51407619 0 0 Z " fill="#DCD4D5" transform="translate(167,30)"/>
<path d="M0 0 C0.66 0 1.32 0 2 0 C2.70180531 1.4096347 3.38593958 2.82807641 4.0625 4.25 C4.44535156 5.03890625 4.82820313 5.8278125 5.22265625 6.640625 C6.08564091 9.25993522 5.93045933 10.44855176 5 13 C3.11304374 8.71146306 1.41807378 4.47238653 0 0 Z " fill="#DFE0D4" transform="translate(272,95)"/>
<path d="M0 0 C2.78211944 0.37596209 4.5879284 0.67318459 6.8125 2.4375 C8 4 8 4 8 6 C4.64532525 4.82133049 2.28780716 3.76945078 0 1 C0 0.67 0 0.34 0 0 Z " fill="#7D7B74" transform="translate(228,48)"/>
<path d="M0 0 C3.37462715 0.54723683 5.08235 1.0549 8 3 C8 3.66 8 4.32 8 5 C7.01 5.33 6.02 5.66 5 6 C3.35 4.02 1.7 2.04 0 0 Z " fill="#B6B0AD" transform="translate(259,80)"/>
<path d="M0 0 C0.99 0.33 1.98 0.66 3 1 C2.01 3.97 1.02 6.94 0 10 C-2 6 -2 6 -1.125 2.75 C-0.75375 1.8425 -0.3825 0.935 0 0 Z " fill="#8C8C89" transform="translate(94,95)"/>
<path d="M0 0 C0.99 0.33 1.98 0.66 3 1 C1.7260411 3.03833424 0.38938077 5.03852126 -1 7 C-1.66 7 -2.32 7 -3 7 C-2.25 2.25 -2.25 2.25 0 0 Z " fill="#A1A098" transform="translate(270,205)"/>
<path d="M0 0 C0.99 0 1.98 0 3 0 C3 0.66 3 1.32 3 2 C4.32 2.33 5.64 2.66 7 3 C6.67 3.66 6.34 4.32 6 5 C3.69 4.34 1.38 3.68 -1 3 C-0.67 2.01 -0.34 1.02 0 0 Z " fill="#998B85" transform="translate(99,203)"/>
<path d="M0 0 C4.95 0.99 4.95 0.99 10 2 C10 2.66 10 3.32 10 4 C5.74357648 4.3648363 3.46444495 3.47460354 0 1 C0 0.67 0 0.34 0 0 Z " fill="#EEE5E8" transform="translate(165,172)"/>
<path d="M0 0 C0.33 0.66 0.66 1.32 1 2 C-0.65 4.31 -2.3 6.62 -4 9 C-4.66 8.34 -5.32 7.68 -6 7 C-4.02 4.69 -2.04 2.38 0 0 Z " fill="#E9E1E4" transform="translate(122,70)"/>
</svg>
