<?xml version="1.0" encoding="UTF-8"?>
<svg version="1.1" xmlns="http://www.w3.org/2000/svg" width="512" height="512">
<path d="M0 0 C26.45888026 -0.72783328 45.46193672 11.60587622 66.09765625 26.25830078 C70.29391858 29.23169246 74.51087781 32.17533847 78.7265625 35.12109375 C80.3933363 36.28760735 82.0600028 37.45427429 83.7265625 38.62109375 C84.9640625 39.48734375 84.9640625 39.48734375 86.2265625 40.37109375 C119.9765625 63.99609375 119.9765625 63.99609375 153.7265625 87.62109375 C154.5520459 88.19891602 155.3775293 88.77673828 156.22802734 89.37207031 C157.88987241 90.53539433 159.55165655 91.69880539 161.21337891 92.86230469 C165.45331342 95.83084091 169.69438978 98.79772319 173.9375 101.76171875 C178.11421374 104.67984209 182.28761376 107.60263742 186.45800781 110.52978516 C187.91474891 111.55163605 189.37235785 112.57225148 190.83105469 113.59130859 C212.05111534 128.42652596 226.80207452 145.19074508 231.73920786 171.41773218 C233.23251453 180.11450727 233.14688276 188.80141347 233.11474609 197.59985352 C233.11882201 199.49903666 233.12416956 201.39821743 233.13067627 203.2973938 C233.14423354 208.40685497 233.13909987 213.51613233 233.12953901 218.62559628 C233.12188292 224.00104809 233.1290043 229.37648536 233.13369751 234.75193787 C233.1391374 243.77369987 233.13200954 252.79538792 233.11767578 261.81713867 C233.10134776 272.21345175 233.10664608 282.60958829 233.123155 293.0058971 C233.13681449 301.9703018 233.13866793 310.93465368 233.13083899 319.89906543 C233.12618757 325.23640039 233.12546745 330.57365265 233.13544846 335.91098213 C233.14418131 340.93036828 233.13798204 345.94952907 233.12076569 350.96889114 C233.11683455 352.79930308 233.11787618 354.62973434 233.12455368 356.46013832 C233.20694679 381.36097896 227.4114446 404.07360389 209.53125 422.37109375 C191.81061586 439.74620021 170.49575288 446.27950655 146.02746582 446.26153564 C144.75785114 446.26450677 143.48823646 446.26747789 142.1801486 446.27053905 C138.67181809 446.27856605 135.16350809 446.28039621 131.65516949 446.28113651 C127.86491542 446.28299462 124.0746718 446.29054578 120.28442383 446.29727173 C112.00309709 446.31082547 103.72177521 446.31687529 95.44043922 446.32128239 C90.26355004 446.3240501 85.08666271 446.32828843 79.90977478 446.33278656 C65.55960457 446.34497588 51.20943583 446.35527552 36.85926056 446.35866165 C35.48287744 446.358991 35.48287744 446.358991 34.07868859 446.359327 C32.69912116 446.35965442 32.69912116 446.35965442 31.29168367 446.35998845 C29.42817974 446.36043191 27.56467581 446.36087847 25.70117188 446.36132812 C24.77682105 446.36154955 23.85247022 446.36177098 22.90010875 446.36199912 C7.93492859 446.36594398 -7.03020279 446.38338999 -21.99536413 446.40668765 C-37.38194544 446.43044679 -52.76850231 446.44286559 -68.15510225 446.44402957 C-76.78514547 446.44494382 -85.41512513 446.45063288 -94.04515076 446.46884918 C-101.39628915 446.48431196 -108.74734432 446.48933445 -116.0984959 446.48111108 C-119.84328914 446.47722618 -123.58791513 446.47802726 -127.33268738 446.49216843 C-156.09283317 446.59437935 -181.91541399 444.04100898 -203.5234375 422.92578125 C-222.67474924 403.39361956 -227.58856242 380.63698592 -227.5480957 354.11230469 C-227.55245054 352.21533509 -227.55763625 350.31836725 -227.56358337 348.42140198 C-227.57690301 343.29928077 -227.57755981 338.17723367 -227.57502007 333.05509853 C-227.57394536 328.76383671 -227.57884659 324.47258957 -227.5836255 320.18133092 C-227.59469682 310.04812205 -227.59517178 299.91495026 -227.58911133 289.78173828 C-227.58307599 279.36395066 -227.59537691 268.94629826 -227.6166814 258.5285337 C-227.63435597 249.55231108 -227.64028947 240.57613126 -227.63704365 231.5998919 C-227.63523964 226.25295598 -227.63777809 220.90611647 -227.65175819 215.55919647 C-227.66442726 210.52591953 -227.66230747 205.49285167 -227.64934731 200.45957756 C-227.64700143 198.62474684 -227.64964371 196.78990099 -227.65797043 194.95508766 C-227.76471928 169.57950122 -222.30069104 147.46192476 -204.57421875 128.32421875 C-196.46231283 120.55662123 -186.88909373 114.38836353 -177.62890625 108.09375 C-172.89709786 104.87464871 -168.20873273 101.59489301 -163.5234375 98.30859375 C-162.68353271 97.71981445 -161.84362793 97.13103516 -160.97827148 96.52441406 C-159.26467177 95.32295274 -157.55121213 94.12129161 -155.83789062 92.91943359 C-151.65170625 89.98384391 -147.46244158 87.05265766 -143.2734375 84.12109375 C-141.60675553 82.95444894 -139.94008888 81.78778225 -138.2734375 80.62109375 C-121.60677083 68.95442708 -104.94010417 57.28776042 -88.2734375 45.62109375 C-87.44803467 45.04327148 -86.62263184 44.46544922 -85.7722168 43.87011719 C-84.10977213 42.70648713 -82.44717507 41.54307476 -80.78442383 40.37988281 C-76.55186833 37.4185456 -72.32223653 34.45317435 -68.09765625 31.48046875 C-63.16646638 28.01258428 -58.22543906 24.55919468 -53.2734375 21.12109375 C-52.56783691 20.63060547 -51.86223633 20.14011719 -51.13525391 19.63476562 C-35.17319228 8.59149181 -19.65928025 1.04714379 0 0 Z M-39.92285156 52.43847656 C-43.95402078 55.32410372 -48.02117071 58.15808983 -52.0859375 60.99609375 C-53.7800183 62.18088896 -55.47402827 63.36578544 -57.16796875 64.55078125 C-58.01182129 65.14084961 -58.85567383 65.73091797 -59.72509766 66.33886719 C-63.9088681 69.26486108 -68.09108274 72.19307685 -72.2734375 75.12109375 C-73.94009652 76.28777134 -75.60676319 77.454438 -77.2734375 78.62109375 C-78.5109375 79.48734375 -78.5109375 79.48734375 -79.7734375 80.37109375 C-127.2734375 113.62109375 -127.2734375 113.62109375 -129.77490234 115.37207031 C-131.43674741 116.53539433 -133.09853155 117.69880539 -134.76025391 118.86230469 C-139.86502018 122.43634187 -144.97221974 126.00687141 -150.08081055 129.57543945 C-152.59889543 131.33644681 -155.11419402 133.10136842 -157.62890625 134.8671875 C-160.51728686 136.89527506 -163.41457536 138.9088113 -166.32421875 140.90625 C-179.91280786 150.29168715 -190.28340467 160.3360491 -193.85956383 177.12396812 C-194.82967498 184.14916732 -194.55908032 191.31460955 -194.5480957 198.39379883 C-194.55244768 200.24755559 -194.55763244 202.10131055 -194.56358337 203.95506287 C-194.57693333 208.97172497 -194.57755644 213.98831156 -194.57502007 219.00498796 C-194.5739475 223.20203397 -194.57884112 227.39906489 -194.5836255 231.59610766 C-194.59470714 241.50329233 -194.59516584 251.41043909 -194.58911133 261.31762695 C-194.58307395 271.51673833 -194.59537969 281.71571168 -194.6166814 291.91479951 C-194.634332 300.69047636 -194.64029325 309.46610941 -194.63704365 318.24180335 C-194.63523595 323.4746388 -194.63781554 328.7073758 -194.65175819 333.94019508 C-194.66438805 338.86425838 -194.66234386 343.78810751 -194.64934731 348.71216774 C-194.64699306 350.51158726 -194.64967453 352.3110221 -194.65797043 354.11042404 C-194.73308019 371.67906612 -192.32892993 386.55312334 -179.796875 399.79296875 C-167.80281345 410.85869737 -155.0900948 413.2923469 -139.3125 413.21875 C-138.16679535 413.21733505 -137.0210907 413.2159201 -135.84066772 413.21446228 C-132.19323072 413.20887955 -128.54585585 413.19633016 -124.8984375 413.18359375 C-122.42057381 413.17857652 -119.94270915 413.174014 -117.46484375 413.16992188 C-111.40102059 413.15891576 -105.33723348 413.14219478 -99.2734375 413.12109375 C-99.26463814 411.32063095 -99.26463814 411.32063095 -99.25566101 409.48379517 C-99.19811996 398.09897898 -99.1251984 386.71434807 -99.03772259 375.32972145 C-98.99324526 369.47861773 -98.95394095 363.62758003 -98.92700195 357.77636719 C-98.90074101 352.11573962 -98.86018259 346.45536928 -98.81025124 340.7949028 C-98.79373506 338.64951179 -98.78212693 336.50407646 -98.77582359 334.35863113 C-98.66931376 301.39842461 -91.1436895 273.8724977 -67.9609375 249.37109375 C-46.76922525 229.1055927 -19.99880514 221.6156457 8.6796875 221.90234375 C15.97452569 222.08346947 22.68121769 223.15316793 29.7265625 225.12109375 C30.72042969 225.38792969 31.71429688 225.65476562 32.73828125 225.9296875 C47.55273424 230.37995709 60.14711585 238.00271456 71.7265625 248.12109375 C72.48453125 248.77722656 73.2425 249.43335938 74.0234375 250.109375 C92.31664587 267.19523162 102.58573859 292.86557937 103.85138702 317.55620575 C104.07753724 324.34420608 104.10339676 331.13465004 104.140625 337.92578125 C104.15937035 340.10296332 104.17894617 342.28013838 104.1993103 344.45730591 C104.25028217 350.14198646 104.29009326 355.82669048 104.32745361 361.51147461 C104.36771431 367.33062375 104.41870514 373.14967824 104.46875 378.96875 C104.56509463 390.35279776 104.64962997 401.7368994 104.7265625 413.12109375 C111.91236472 413.19770972 119.09806 413.24992931 126.28417969 413.28588867 C128.7243239 413.30089353 131.16444152 413.3213039 133.60449219 413.34741211 C137.12962442 413.38416226 140.65439738 413.40090377 144.1796875 413.4140625 C145.2551886 413.42954636 146.3306897 413.44503021 147.43878174 413.46098328 C162.52688078 413.46427009 175.38579012 409.0684522 186.3984375 398.64453125 C196.10345564 388.12533374 199.88413213 376.37324646 199.86700439 362.2671814 C199.86997552 361.49464669 199.87294664 360.72211198 199.8760078 359.92616713 C199.88465361 357.34708859 199.88619955 354.7680567 199.88769531 352.18896484 C199.89232646 350.33565167 199.89735152 348.48233945 199.90274048 346.62902832 C199.91583918 341.59981302 199.92230467 336.57061105 199.92675114 331.54138136 C199.92968636 328.39575618 199.93379204 325.25013462 199.93825531 322.10451126 C199.95192448 312.25232059 199.9615936 302.4001382 199.9654572 292.5479387 C199.96993462 281.19438465 199.98747032 269.84095119 200.0164578 258.48743379 C200.03811305 249.6990851 200.04816356 240.91077023 200.04949832 232.12239516 C200.05054372 226.87944562 200.05639497 221.63660953 200.07431793 216.3936882 C200.09086483 211.45736545 200.09292212 206.52124061 200.08417892 201.5848999 C200.08341205 199.78064059 200.08770482 197.97637035 200.09763718 196.17213821 C200.1828534 179.71758242 198.36917421 165.13778224 186.7890625 152.43359375 C178.92916968 144.97556011 169.62596062 139.1894112 160.68212891 133.13183594 C156.27025663 130.13033419 151.90428407 127.06486101 147.5390625 123.99609375 C145.89990702 122.84741728 144.26058457 121.69897904 142.62109375 120.55078125 C141.81494629 119.98584961 141.00879883 119.42091797 140.17822266 118.83886719 C136.02869822 115.93147285 131.87753944 113.02641374 127.7265625 110.12109375 C126.05988819 108.954438 124.39322152 107.78777134 122.7265625 106.62109375 C121.4890625 105.75484375 121.4890625 105.75484375 120.2265625 104.87109375 C72.7265625 71.62109375 72.7265625 71.62109375 70.22509766 69.86987305 C68.56355859 68.70692558 66.90177588 67.54432612 65.23974609 66.38208008 C60.99253048 63.41136141 56.75012271 60.43413709 52.515625 57.4453125 C47.60206516 53.98045106 42.67426584 50.53703355 37.7265625 47.12109375 C36.70876709 46.41799072 36.70876709 46.41799072 35.67041016 45.70068359 C7.22883691 26.22242777 -13.91646016 33.72669559 -39.92285156 52.43847656 Z M-51.328125 279.51953125 C-61.76306352 293.47468999 -66.45788567 308.40441107 -66.38696289 325.82006836 C-66.38708343 326.78239411 -66.38720396 327.74471987 -66.38732815 328.73620701 C-66.38658548 331.83197453 -66.37898678 334.92768084 -66.37109375 338.0234375 C-66.36962233 339.94242321 -66.36860285 341.86140932 -66.36804199 343.78039551 C-66.3628123 350.8731344 -66.34885103 357.96586469 -66.3359375 365.05859375 C-66.3153125 380.91921875 -66.2946875 396.77984375 -66.2734375 413.12109375 C-20.7334375 413.12109375 24.8065625 413.12109375 71.7265625 413.12109375 C71.7884375 397.40484375 71.8503125 381.68859375 71.9140625 365.49609375 C71.94137451 360.55946777 71.96868652 355.6228418 71.99682617 350.53662109 C72.00686815 346.0568421 72.00686815 346.0568421 72.01289368 341.57705688 C72.017458 339.60348472 72.02791966 337.62992018 72.04328918 335.65640259 C72.21913792 311.85773471 68.22587495 291.14386009 51.2890625 273.24609375 C36.17677955 259.24043106 18.01881808 253.18297117 -2.296875 253.77734375 C-21.54685985 254.80793567 -38.97508628 264.96595122 -51.328125 279.51953125 Z " fill="#000000" transform="translate(253.2734375,32.87890625)"/>
</svg>
